<svg id="Camada_1" data-name="Camada 1" xmlns="http://www.w3.org/2000/svg" viewBox="0 0 156.59 155.62"><defs><style>.cls-1{fill:#0083c5;}</style></defs><circle class="cls-1" cx="113.13" cy="103.23" r="11.4" transform="translate(-73.94 93.69) rotate(-48.4)"/><circle class="cls-1" cx="134.43" cy="82.27" r="8.44" transform="translate(-48.86 109.4) rotate(-51.01)"/><circle class="cls-1" cx="116.56" cy="39.48" r="5.91"/><circle class="cls-1" cx="113.23" cy="49.5" r="5.91" transform="translate(-42.35 49.89) rotate(-35.75)"/><circle class="cls-1" cx="59.4" cy="103.12" r="5.91" transform="translate(-83.82 28.55) rotate(-35.75)"/><path class="cls-1" d="M117.65,152.65a5.91,5.91,0,1,1-8.36-.16A5.92,5.92,0,0,1,117.65,152.65Z" transform="translate(-34.77 -25.59)"/><circle class="cls-1" cx="75.33" cy="140.92" r="5.91" transform="translate(-111.55 66.4) rotate(-44.04)"/><circle class="cls-1" cx="75.62" cy="65.62" r="5.91" transform="translate(-58.86 30.96) rotate(-35.75)"/><circle class="cls-1" cx="150.58" cy="140.93" r="5.91" transform="translate(-90.42 113.4) rotate(-42.57)"/><circle class="cls-1" cx="167.26" cy="103.15" r="5.91" transform="translate(24.78 241.93) rotate(-88.43)"/><path class="cls-1" d="M168.33,48.46a4.22,4.22,0,1,1-6-.12A4.23,4.23,0,0,1,168.33,48.46Z" transform="translate(-34.77 -25.59)"/><path class="cls-1" d="M64.12,151.86a4.22,4.22,0,1,1-6-.12A4.22,4.22,0,0,1,64.12,151.86Z" transform="translate(-34.77 -25.59)"/><path class="cls-1" d="M116.18,26.88a4.22,4.22,0,1,1-6-.12A4.23,4.23,0,0,1,116.18,26.88Z" transform="translate(-34.77 -25.59)"/><path class="cls-1" d="M64.86,48.73a4.22,4.22,0,1,1-6-.11A4.22,4.22,0,0,1,64.86,48.73Z" transform="translate(-34.77 -25.59)"/><path class="cls-1" d="M42,100.4a4.22,4.22,0,1,1-6-.12A4.22,4.22,0,0,1,42,100.4Z" transform="translate(-34.77 -25.59)"/><path class="cls-1" d="M116.51,174.06a4.22,4.22,0,1,1-6-.12A4.22,4.22,0,0,1,116.51,174.06Z" transform="translate(-34.77 -25.59)"/><path class="cls-1" d="M167.78,152a4.22,4.22,0,1,1-6-.12A4.21,4.21,0,0,1,167.78,152Z" transform="translate(-34.77 -25.59)"/><path class="cls-1" d="M190.17,100.55a4.22,4.22,0,1,1-6-.12A4.2,4.2,0,0,1,190.17,100.55Z" transform="translate(-34.77 -25.59)"/><circle class="cls-1" cx="113.47" cy="73.81" r="8.44" transform="translate(-56.34 57.54) rotate(-36.99)"/><circle class="cls-1" cx="83.48" cy="103.37" r="8.44" transform="translate(-84.15 77.62) rotate(-51.01)"/><circle class="cls-1" cx="113.5" cy="132.59" r="8.44" transform="translate(-86.33 50.29) rotate(-30.47)"/><circle class="cls-1" cx="108.13" cy="78.14" r="8.44"/><circle class="cls-1" cx="57.68" cy="56.93" r="8.44"/><circle class="cls-1" cx="133.75" cy="123.91" r="8.44" transform="translate(-26.67 230.43) rotate(-89.24)"/><path class="cls-1" d="M98.33,118.13a8.45,8.45,0,1,1-11.94-.23A8.45,8.45,0,0,1,98.33,118.13Z" transform="translate(-34.77 -25.59)"/></svg>