<svg id="Camada_1" data-name="Camada 1" xmlns="http://www.w3.org/2000/svg" viewBox="0 0 1086.07 161.15"><defs><style>.cls-1,.cls-2{fill:#0083c5;}.cls-2,.cls-5{font-size:111.01px;font-style:italic;}.cls-2{font-family:KoHo-BoldItalic, KoHo;font-weight:700;}.cls-3{letter-spacing:-0.01em;}.cls-4{letter-spacing:-0.01em;}.cls-5{fill:#949599;font-family:KoHo-Italic, KoHo;}.cls-6{letter-spacing:-0.02em;}.cls-7{letter-spacing:-0.03em;}</style></defs><circle class="cls-1" cx="125.9" cy="112.15" r="10.17" transform="translate(-97.51 88.98) rotate(-48.4)"/><circle class="cls-1" cx="144.92" cy="93.44" r="7.54" transform="translate(-74.85 104.43) rotate(-51.01)"/><circle class="cls-1" cx="104.04" cy="35.24" r="5.28"/><circle class="cls-1" cx="125.99" cy="64.19" r="5.28" transform="translate(-69.72 42.86) rotate(-35.75)"/><circle class="cls-1" cx="77.95" cy="112.05" r="5.28" transform="translate(-106.74 23.8) rotate(-35.75)"/><path class="cls-1" d="M129.93,156.26a5.27,5.27,0,1,1-7.46-.15A5.28,5.28,0,0,1,129.93,156.26Z" transform="translate(-55.96 -42.85)"/><circle class="cls-1" cx="92.16" cy="145.79" r="5.28" transform="translate(-131.39 62.21) rotate(-44.04)"/><circle class="cls-1" cx="92.42" cy="78.58" r="5.28" transform="translate(-84.46 25.96) rotate(-35.75)"/><circle class="cls-1" cx="159.33" cy="145.8" r="5.28" transform="translate(-112.6 103.34) rotate(-42.57)"/><circle class="cls-1" cx="174.21" cy="112.08" r="5.28" transform="translate(1.43 240.3) rotate(-88.43)"/><path class="cls-1" d="M175.17,63.26a3.77,3.77,0,1,1-5.33-.1A3.77,3.77,0,0,1,175.17,63.26Z" transform="translate(-55.96 -42.85)"/><path class="cls-1" d="M82.16,155.55a3.77,3.77,0,1,1-5.32-.1A3.76,3.76,0,0,1,82.16,155.55Z" transform="translate(-55.96 -42.85)"/><path class="cls-1" d="M128.62,44a3.77,3.77,0,1,1-5.32-.1A3.76,3.76,0,0,1,128.62,44Z" transform="translate(-55.96 -42.85)"/><path class="cls-1" d="M82.82,63.51a3.77,3.77,0,1,1-5.32-.11A3.76,3.76,0,0,1,82.82,63.51Z" transform="translate(-55.96 -42.85)"/><path class="cls-1" d="M62.44,109.62a3.77,3.77,0,1,1-5.32-.11A3.76,3.76,0,0,1,62.44,109.62Z" transform="translate(-55.96 -42.85)"/><path class="cls-1" d="M128.92,175.37a3.77,3.77,0,1,1-5.33-.11A3.77,3.77,0,0,1,128.92,175.37Z" transform="translate(-55.96 -42.85)"/><path class="cls-1" d="M174.68,155.65a3.77,3.77,0,1,1-5.32-.1A3.76,3.76,0,0,1,174.68,155.65Z" transform="translate(-55.96 -42.85)"/><path class="cls-1" d="M194.67,109.75a3.77,3.77,0,1,1-5.33-.1A3.77,3.77,0,0,1,194.67,109.75Z" transform="translate(-55.96 -42.85)"/><circle class="cls-1" cx="126.2" cy="85.89" r="7.54" transform="translate(-82.24 50.37) rotate(-36.99)"/><circle class="cls-1" cx="99.44" cy="112.27" r="7.54" transform="translate(-106.35 76.07) rotate(-51.01)"/><circle class="cls-1" cx="126.23" cy="138.36" r="7.54" transform="translate(-108.69 40.28) rotate(-30.47)"/><circle class="cls-1" cx="96.51" cy="69.74" r="7.54"/><circle class="cls-1" cx="51.48" cy="50.81" r="7.54"/><circle class="cls-1" cx="144.31" cy="130.6" r="7.54" transform="translate(-44.14 230.33) rotate(-89.24)"/><path class="cls-1" d="M112.69,125.45a7.54,7.54,0,1,1-10.66-.21A7.55,7.55,0,0,1,112.69,125.45Z" transform="translate(-55.96 -42.85)"/><text class="cls-2" transform="translate(164.71 107.98)"><tspan class="cls-3">E</tspan><tspan class="cls-4" x="61.94" y="0">G</tspan><tspan x="135.66" y="0">T</tspan></text><text class="cls-5" transform="translate(377.16 108.2)"><tspan class="cls-6">T</tspan><tspan x="62.83" y="0">ECHNO</tspan><tspan class="cls-7" x="432.94" y="0">L</tspan><tspan x="491.33" y="0">O</tspan><tspan class="cls-7" x="566.82" y="0">G</tspan><tspan x="637.31" y="0">Y</tspan></text></svg>